<svg xmlns="http://www.w3.org/2000/svg" viewBox="0 0 100 100" id="1339544037" class="svg u_1339544037" alt="Recycleur agréé PR 3600001 D" data-icon-name="li_key"> <g id="1969803625"> <path d="M71.7,15.7L37.9,49.5c-1.5-0.4-3-0.6-4.5-0.6c-9.8,0-17.7,7.9-17.7,17.7c0,9.8,7.9,17.7,17.7,17.7
		c9.8,0,17.7-7.9,17.7-17.7c0-1.5-0.2-3-0.6-4.5l11.6-11.6V40h11.1V29h11.1V15.7H71.7z M82.1,26.8H71v11.1H60v11.7L48,61.5l0.2,0.6
		c0.4,1.5,0.7,3,0.7,4.5c0,8.5-6.9,15.5-15.5,15.5c-8.5,0-15.5-6.9-15.5-15.5c0-8.5,6.9-15.5,15.5-15.5c1.5,0,3,0.2,4.5,0.7l0.6,0.2
		l34-34h9.5V26.8z" id="1321772165"></path> 
 <circle cx="33.4" cy="66.6" r="2.2" id="1865042992"></circle> 
</g> 
</svg>