<?xml version="1.0" standalone="no"?>
<!DOCTYPE svg PUBLIC "-//W3C//DTD SVG 20010904//EN"
 "http://www.w3.org/TR/2001/REC-SVG-20010904/DTD/svg10.dtd">
<svg version="1.0" xmlns="http://www.w3.org/2000/svg"
 width="1280.000000pt" height="1280.000000pt" viewBox="0 0 1280.000000 1280.000000"
 preserveAspectRatio="xMidYMid meet">
<metadata>
Created by potrace 1.15, written by Peter Selinger 2001-2017
</metadata>
<g transform="translate(0.000000,1280.000000) scale(0.100000,-0.100000)"
fill="#bac5cd" stroke="none">
<path d="M6060 11815 c-709 -89 -1330 -387 -1818 -874 -627 -624 -938 -1434
-909 -2361 42 -1298 711 -2740 1908 -4112 327 -375 826 -869 1112 -1102 l47
-38 48 38 c199 162 603 549 855 819 1101 1178 1816 2428 2067 3614 74 349 105
671 97 1023 -8 403 -68 714 -204 1058 -185 468 -477 881 -858 1209 -443 382
-962 619 -1560 713 -173 27 -614 34 -785 13z m600 -1520 c499 -88 917 -397
1135 -840 71 -145 103 -234 137 -387 20 -89 23 -131 23 -308 0 -177 -3 -219
-23 -308 -34 -153 -66 -242 -137 -387 -218 -443 -636 -752 -1135 -840 -112
-19 -397 -20 -505 0 -477 86 -873 362 -1102 770 -402 715 -187 1605 497 2062
173 116 377 197 600 238 96 18 407 18 510 0z"/>
<path d="M5880 2934 c-993 -34 -1660 -120 -1821 -235 -23 -16 -29 -28 -27 -47
19 -162 1031 -282 2373 -282 1357 0 2375 124 2375 289 0 6 -10 19 -21 30 -112
104 -607 182 -1474 231 -176 10 -1216 21 -1405 14z"/>
</g>
</svg>
